<?xml version="1.0" standalone="no"?>
<!DOCTYPE svg PUBLIC "-//W3C//DTD SVG 20010904//EN"
 "http://www.w3.org/TR/2001/REC-SVG-20010904/DTD/svg10.dtd">
<svg version="1.0" xmlns="http://www.w3.org/2000/svg"
 width="512.000000pt" height="512.000000pt" viewBox="0 0 512.000000 512.000000"
 preserveAspectRatio="xMidYMid meet">
<metadata>
Created by potrace 1.14, written by Peter Selinger 2001-2017
</metadata>
<g transform="translate(0.000000,512.000000) scale(0.100000,-0.100000)"
fill="#000000" stroke="none">
<path d="M1635 4465 c-23 -8 -58 -33 -81 -59 -43 -47 -57 -85 -69 -191 -5 -47
-8 -66 -20 -139 -2 -16 -7 -50 -11 -75 -3 -25 -8 -57 -10 -71 -2 -14 -31 -218
-64 -455 -33 -236 -64 -443 -68 -460 l-8 -29 -249 -1 c-233 -1 -253 -3 -290
-22 -81 -42 -124 -113 -121 -198 3 -86 53 -157 131 -191 38 -16 726 -20 783
-4 74 20 139 100 147 182 3 22 7 48 9 57 3 9 8 41 11 71 3 30 7 62 10 70 2 8
7 39 10 69 4 30 9 63 11 75 2 12 6 41 9 66 3 25 10 72 15 105 17 113 21 140
26 180 2 22 7 51 9 65 2 14 7 45 10 70 3 25 8 57 10 71 3 14 7 43 10 65 2 21
14 105 26 187 l22 147 61 1 c308 2 1267 1 1271 -2 4 -5 12 -43 20 -108 10 -77
14 -105 19 -126 2 -11 7 -45 10 -75 4 -30 8 -66 11 -80 2 -14 6 -43 10 -65 6
-41 7 -47 25 -180 18 -130 27 -191 35 -245 10 -64 25 -166 25 -175 0 -7 -223
-10 -648 -11 -638 0 -648 0 -687 -21 -81 -43 -124 -113 -121 -198 3 -86 52
-157 131 -191 24 -10 252 -13 1144 -14 1096 0 1115 0 1156 20 84 41 125 109
121 200 -4 85 -47 149 -124 186 -32 15 -69 18 -287 19 l-249 1 -7 34 c-4 19
-10 58 -14 86 -3 29 -7 60 -9 71 -2 10 -8 46 -12 78 -4 33 -8 62 -9 65 -1 3
-5 30 -9 60 -4 30 -9 66 -11 80 -2 14 -9 63 -15 110 -6 46 -13 87 -15 90 -2 3
-6 36 -10 75 -3 38 -8 72 -10 75 -1 3 -6 32 -10 65 -3 32 -8 62 -10 65 -1 3
-6 36 -10 75 -4 38 -8 72 -10 75 -1 3 -6 28 -9 55 -4 28 -9 68 -12 90 -12 99
-27 137 -69 180 -65 64 1 60 -990 62 -751 2 -907 0 -940 -12z"/>
<path d="M1490 2124 c-454 -75 -739 -534 -599 -965 21 -65 76 -174 111 -219
78 -102 213 -205 325 -249 180 -71 400 -65 579 14 245 109 419 357 439 627 5
71 15 85 91 123 102 52 217 39 303 -33 30 -25 35 -35 38 -81 6 -100 33 -195
80 -290 40 -80 63 -111 138 -186 108 -108 205 -165 340 -200 462 -119 913 218
930 695 8 238 -98 463 -291 618 -50 40 -167 99 -239 122 -99 30 -232 38 -287
16 -51 -20 -75 -39 -108 -86 -21 -29 -25 -47 -25 -106 0 -78 13 -112 59 -158
37 -36 76 -52 146 -61 119 -14 179 -42 239 -111 50 -57 74 -118 77 -199 10
-284 -321 -433 -535 -240 -72 65 -101 156 -105 330 -3 99 -23 132 -147 237
-249 209 -537 252 -799 118 l-42 -21 -16 22 c-9 13 -40 47 -70 77 -137 135
-318 209 -513 210 -52 0 -105 -2 -119 -4z m243 -451 c207 -93 248 -372 78
-525 -163 -147 -419 -85 -509 122 -31 74 -20 208 25 277 93 144 253 194 406
126z"/>
</g>
</svg>
